<svg width="164" height="151" viewBox="0 0 164 151" fill="none" xmlns="http://www.w3.org/2000/svg">
<g clip-path="url(#clip0_1_31)">
<rect width="164.518" height="150.808" rx="34.2745" fill="black"/>
<path d="M37.6883 117.904H36.5229C34.503 117.904 32.5608 117.709 30.6963 117.321C28.8317 116.932 27.1614 116.233 25.6853 115.223C24.2869 114.213 23.1216 112.815 22.1893 111.028C21.3347 109.241 20.9075 106.911 20.9075 104.036V33.3003H22.772C24.6365 33.3003 26.4622 33.5334 28.2491 33.9995C30.0359 34.388 31.6285 35.126 33.0269 36.2137C34.4253 37.2236 35.5518 38.622 36.4064 40.4089C37.261 42.1957 37.6883 44.4875 37.6883 47.2843V117.904ZM63.209 106.716C63.209 108.037 62.9371 109.358 62.3933 110.678C61.9272 111.999 61.1891 113.203 60.1792 114.291C59.2469 115.301 58.0039 116.156 56.4501 116.855C54.974 117.554 53.2649 117.904 51.3227 117.904H50.8565C48.7589 117.904 47.0109 117.554 45.6125 116.855C44.2141 116.078 43.0488 115.184 42.1165 114.174C41.2619 113.087 40.6404 111.96 40.252 110.795C39.9412 109.552 39.7859 108.464 39.7859 107.532C39.7859 106.911 39.7859 106.367 39.7859 105.901C39.8635 105.357 40.0189 104.774 40.252 104.153C41.2619 105.085 42.505 105.551 43.9811 105.551C45.1464 105.551 46.1175 105.201 46.8944 104.502C47.6713 103.725 48.0597 102.599 48.0597 101.123V95.4126C48.2151 95.3349 48.7201 95.2961 49.5747 95.2961C50.5069 95.2184 51.245 95.1795 51.7888 95.1795C52.6434 95.1795 53.731 95.3349 55.0517 95.6457C56.3724 95.8787 57.6155 96.4225 58.7808 97.2771C60.0238 98.1317 61.0726 99.3359 61.9272 100.89C62.7818 102.366 63.209 104.308 63.209 106.716ZM116.304 98.2094C116.304 99.064 116.342 99.9574 116.42 100.89C116.498 101.744 116.692 102.56 117.003 103.337C117.391 104.036 117.896 104.619 118.518 105.085C119.217 105.551 120.149 105.784 121.315 105.784C122.713 105.784 123.956 105.318 125.044 104.386C125.277 105.007 125.432 105.59 125.51 106.134C125.665 106.6 125.743 107.144 125.743 107.765C125.743 109.008 125.51 110.251 125.044 111.494C124.655 112.66 123.995 113.708 123.063 114.641C122.13 115.573 120.926 116.35 119.45 116.971C118.052 117.515 116.304 117.787 114.206 117.787C109.545 117.787 105.932 116.389 103.368 113.592C100.805 110.795 99.5228 106.949 99.5228 102.055V47.2843C99.5228 44.4875 99.9501 42.1957 100.805 40.4089C101.659 38.622 102.786 37.2236 104.184 36.2137C105.583 35.126 107.175 34.388 108.962 33.9995C110.827 33.5334 112.691 33.3003 114.556 33.3003H116.42L116.304 98.2094ZM85.8884 117.787C81.2271 117.787 77.6146 116.389 75.0508 113.592C72.5648 110.795 71.3218 106.949 71.3218 102.055V47.2843C71.3218 44.4875 71.7491 42.1957 72.6036 40.4089C73.4582 38.622 74.5847 37.2236 75.9831 36.2137C77.3815 35.126 78.9741 34.388 80.761 33.9995C82.5478 33.5334 84.3735 33.3003 86.238 33.3003H88.1026V98.2094C88.1026 99.064 88.1414 99.9574 88.2191 100.89C88.3745 101.744 88.6075 102.56 88.9183 103.337C89.3067 104.036 89.8117 104.619 90.4332 105.085C91.1324 105.551 92.0647 105.784 93.23 105.784C94.6284 105.784 95.8714 105.318 96.9591 104.386C97.1922 105.007 97.3475 105.59 97.4252 106.134C97.5806 106.6 97.6583 107.144 97.6583 107.765C97.6583 108.93 97.4252 110.135 96.9591 111.378C96.5706 112.543 95.9103 113.631 94.978 114.641C94.0458 115.573 92.8027 116.35 91.249 116.971C89.7729 117.515 87.986 117.787 85.8884 117.787ZM144.388 86.0899C144.388 89.819 143.961 92.9265 143.106 95.4126C142.252 97.8986 141.086 99.8797 139.61 101.356C138.134 102.754 136.425 103.764 134.483 104.386C132.541 105.007 130.482 105.318 128.307 105.318H127.607V47.2843C127.607 44.4875 128.035 42.1957 128.889 40.4089C129.744 38.622 130.87 37.2236 132.269 36.2137C133.667 35.126 135.26 34.388 137.047 33.9995C138.833 33.5334 140.659 33.3003 142.524 33.3003H144.388V86.0899Z" fill="#F7F5F5"/>
</g>
<defs>
<clipPath id="clip0_1_31">
<rect width="164" height="151" fill="white"/>
</clipPath>
</defs>
</svg>
