<svg width="175" height="161" viewBox="0 0 175 161" fill="none" xmlns="http://www.w3.org/2000/svg">
<g clip-path="url(#clip0_1_51)">
<rect width="175" height="160.417" rx="36.4583" fill="#F2F2F3"/>
<path d="M40.0896 125H38.85C36.7014 125 34.6354 124.793 32.6521 124.38C30.6688 123.967 28.892 123.223 27.3219 122.149C25.8344 121.075 24.5948 119.587 23.6031 117.686C22.6941 115.786 22.2396 113.307 22.2396 110.249V35.0062H24.2229C26.2063 35.0062 28.1483 35.2542 30.049 35.75C31.9497 36.1632 33.6438 36.9483 35.1313 38.1052C36.6188 39.1795 37.817 40.667 38.7261 42.5677C39.6351 44.4684 40.0896 46.9062 40.0896 49.8812V125ZM67.2365 113.1C67.2365 114.505 66.9472 115.91 66.3688 117.315C65.8729 118.719 65.0879 120 64.0136 121.157C63.0219 122.232 61.6997 123.141 60.0469 123.884C58.4768 124.628 56.6587 125 54.5927 125H54.0969C51.8656 125 50.0063 124.628 48.5188 123.884C47.0313 123.058 45.7917 122.108 44.8 121.033C43.891 119.876 43.2299 118.678 42.8167 117.439C42.4861 116.116 42.3209 114.959 42.3209 113.968C42.3209 113.307 42.3209 112.728 42.3209 112.232C42.4035 111.654 42.5688 111.034 42.8167 110.373C43.891 111.365 45.2132 111.86 46.7834 111.86C48.0229 111.86 49.0559 111.489 49.8823 110.745C50.7087 109.918 51.1219 108.72 51.1219 107.15V101.076C51.2872 100.993 51.8243 100.952 52.7334 100.952C53.725 100.869 54.5101 100.828 55.0886 100.828C55.9976 100.828 57.1545 100.993 58.5594 101.324C59.9643 101.572 61.2865 102.15 62.5261 103.059C63.8483 103.968 64.9639 105.249 65.8729 106.902C66.782 108.472 67.2365 110.538 67.2365 113.1ZM123.714 104.051C123.714 104.96 123.755 105.91 123.838 106.902C123.921 107.811 124.127 108.679 124.458 109.505C124.871 110.249 125.408 110.869 126.069 111.365C126.813 111.86 127.805 112.108 129.044 112.108C130.532 112.108 131.854 111.612 133.011 110.621C133.259 111.282 133.424 111.902 133.507 112.48C133.672 112.976 133.755 113.555 133.755 114.216C133.755 115.538 133.507 116.86 133.011 118.182C132.598 119.422 131.895 120.537 130.904 121.529C129.912 122.521 128.631 123.347 127.061 124.008C125.573 124.587 123.714 124.876 121.483 124.876C116.524 124.876 112.682 123.389 109.955 120.414C107.228 117.439 105.864 113.348 105.864 108.142V49.8812C105.864 46.9062 106.319 44.4684 107.228 42.5677C108.137 40.667 109.335 39.1795 110.822 38.1052C112.31 36.9483 114.004 36.1632 115.905 35.75C117.888 35.2542 119.871 35.0062 121.855 35.0062H123.838L123.714 104.051ZM91.3609 124.876C86.4026 124.876 82.5599 123.389 79.8328 120.414C77.1883 117.439 75.8661 113.348 75.8661 108.142V49.8812C75.8661 46.9062 76.3206 44.4684 77.2297 42.5677C78.1387 40.667 79.3369 39.1795 80.8244 38.1052C82.3119 36.9483 84.006 36.1632 85.9067 35.75C87.8074 35.2542 89.7494 35.0062 91.7328 35.0062H93.7161V104.051C93.7161 104.96 93.7574 105.91 93.8401 106.902C94.0053 107.811 94.2533 108.679 94.5838 109.505C94.997 110.249 95.5342 110.869 96.1953 111.365C96.939 111.86 97.9307 112.108 99.1703 112.108C100.658 112.108 101.98 111.612 103.137 110.621C103.385 111.282 103.55 111.902 103.633 112.48C103.798 112.976 103.881 113.555 103.881 114.216C103.881 115.455 103.633 116.736 103.137 118.058C102.724 119.298 102.021 120.455 101.03 121.529C100.038 122.521 98.7158 123.347 97.063 124.008C95.4928 124.587 93.5922 124.876 91.3609 124.876ZM153.588 91.1594C153.588 95.126 153.133 98.4316 152.224 101.076C151.315 103.72 150.076 105.828 148.506 107.398C146.936 108.885 145.118 109.96 143.052 110.621C140.986 111.282 138.796 111.612 136.482 111.612H135.738V49.8812C135.738 46.9062 136.193 44.4684 137.102 42.5677C138.011 40.667 139.209 39.1795 140.696 38.1052C142.184 36.9483 143.878 36.1632 145.779 35.75C147.679 35.2542 149.621 35.0062 151.605 35.0062H153.588V91.1594Z" fill="#424242"/>
</g>
<defs>
<clipPath id="clip0_1_51">
<rect width="175" height="161" fill="white"/>
</clipPath>
</defs>
</svg>
